#!OML:ASF X:\für Bonn\!DataBase\2005_08_10_Bjorn_Final\c3d\bjorn.ASF
:FULLY-SPECIFIED
:DEGREES
204
root -1.05576 18.5053 -2.76505 524.963 94.9425 531.708
lowerback 4.1137 -0.0763055 -7.91546
upperback 16.3291 1.81468 -2.96889
thorax 15.9038 0.542946 1.32173
lowerneck 5.23648 -5.94861 4.11204
upperneck 4.16399 -7.71419 12.3248
head 0.797127 -3.66432 3.32472
rclavicle 1.74931e-014 4.77083e-014
rhumerus -27.0933 -22.8776 -81.6975
rradius 38.8253
rwrist 6.70522
rhand -10.7808 18.878
rfingers 7.12502
rthumb 15.2316 -10.5413
lclavicle 1.74931e-014 4.77083e-014
lhumerus 0.549216 -6.22479 78.0485
lradius 62.5683
lwrist -9.30994
lhand -45.6599 -13.2368
lfingers 7.12502
lthumb -18.4186 15.9112
rfemur -38.4464 -14.0881 13.6093
rtibia 32.6817
rfoot 19.2484 8.55519
rtoes -20.5191
lfemur 3.68388 1.21348 -19.0163
ltibia 35.5027
lfoot -25.2259 3.17607
ltoes -14.5154
205
root -0.965346 18.4998 -2.75228 526.912 94.9105 533.476
lowerback 3.85658 -0.107188 -7.7669
upperback 16.25 1.77246 -2.98078
thorax 15.9643 0.536895 1.22642
lowerneck 5.17802 -5.88627 4.24231
upperneck 4.14361 -7.62405 12.1179
head 0.781264 -3.61813 3.2281
rclavicle 4.77083e-015 -1.59028e-014
rhumerus -27.1101 -22.9461 -81.626
rradius 38.7997
rwrist 6.8158
rhand -10.8296 18.9172
rfingers 7.12502
rthumb 15.1846 -10.5056
lclavicle 4.77083e-015 -1.59028e-014
lhumerus 0.442054 -6.18533 77.9315
lradius 62.3461
lwrist -8.9999
lhand -45.684 -13.3652
lfingers 7.12502
lthumb -18.4418 15.7806
rfemur -38.0849 -14.0796 13.4891
rtibia 31.7818
rfoot 19.8123 8.24376
rtoes -20.01
lfemur 3.94327 1.24628 -19.1399
ltibia 35.2216
lfoot -25.2979 3.04142
ltoes -14.4993
206
root -0.872324 18.4942 -2.73881 529.412 94.8646 535.81
lowerback 3.59637 -0.133509 -7.64142
upperback 16.1681 1.74259 -3.026
thorax 16.0247 0.537713 1.10718
lowerneck 5.13025 -5.8398 4.44193
upperneck 4.14426 -7.55131 11.8919
head 0.768052 -3.5783 3.11342
rclavicle 4.77083e-015 3.49861e-014
rhumerus -27.17 -22.9906 -81.6018
rradius 38.7945
rwrist 6.82823
rhand -10.8894 18.9567
rfingers 7.12502
rthumb 15.1271 -10.4705
lclavicle 4.77083e-015 3.49861e-014
lhumerus 0.313056 -6.15619 77.7798
lradius 62.1319
lwrist -8.66457
lhand -45.6343 -13.5401
lfingers 7.12502
lthumb -18.3939 15.6102
rfemur -37.6796 -13.9992 13.2699
rtibia 30.9225
rfoot 20.3427 7.93114
rtoes -19.557
lfemur 4.21575 1.31234 -19.3066
ltibia 34.9592
lfoot -25.3649 2.89937
ltoes -14.4469
207
root -0.779286 18.4867 -2.7238 531.658 94.795 537.866
lowerback 3.33297 -0.184247 -7.52471
upperback 16.0837 1.6734 -3.03711
thorax 16.0857 0.514336 1.02684
lowerneck 5.10274 -5.76458 4.56572
upperneck 4.11704 -7.44092 11.6696
head 0.744193 -3.52381 3.01466
rclavicle -2.38542e-015 1.43125e-014
rhumerus -27.2031 -22.9223 -81.5515
rradius 38.7786
rwrist 6.78336
rhand -10.9523 19.036
rfingers 7.12502
rthumb 15.0664 -10.3958
lclavicle -2.38542e-015 1.43125e-014
lhumerus 0.177218 -6.07466 77.6734
lradius 61.8966
lwrist -8.32629
lhand -45.632 -13.6757
lfingers 7.12502
lthumb -18.3917 15.4748
rfemur -37.2835 -13.874 13.0409
rtibia 30.1028
rfoot 20.8969 7.52746
rtoes -18.9555
lfemur 4.44976 1.35977 -19.4349
ltibia 34.7152
lfoot -25.4351 2.73264
ltoes -14.5052
208
root -0.685021 18.4776 -2.70842 533.943 94.7103 539.972
lowerback 3.07612 -0.247445 -7.37267
upperback 16.0056 1.58958 -3.07625
thorax 16.1526 0.492284 0.893441
lowerneck 5.12388 -5.69125 4.76846
upperneck 4.01464 -7.31571 11.4221
head 0.68388 -3.467 2.89659
rclavicle -2.78299e-014 -3.49861e-014
rhumerus -27.2259 -22.9042 -81.5507
rradius 38.7371
rwrist 6.76587
rhand -11.0376 19.1181
rfingers 7.12502
rthumb 14.9843 -10.3198
lclavicle -2.78299e-014 -3.49861e-014
lhumerus 0.0647914 -6.00038 77.4974
lradius 61.6186
lwrist -8.00515
lhand -45.6358 -13.8487
lfingers 7.12502
lthumb -18.3954 15.3015
rfemur -36.9052 -13.8235 12.8268
rtibia 29.3701
rfoot 21.4501 7.33753
rtoes -18.9153
lfemur 4.6948 1.39217 -19.5603
ltibia 34.4775
lfoot -25.4908 2.55654
ltoes -14.5666
209
root -0.589042 18.4689 -2.69029 536.592 94.6443 542.454
lowerback 2.83116 -0.301185 -7.27297
upperback 15.9173 1.51605 -3.10085
thorax 16.1982 0.466826 0.805595
lowerneck 5.19963 -5.59309 4.90093
upperneck 3.9114 -7.15623 11.1976
head 0.617105 -3.39562 2.80054
rclavicle 1.59028e-015 -3.18055e-015
rhumerus -27.2897 -22.902 -81.5028
rradius 38.6948
rwrist 6.80501
rhand -11.0865 19.2083
rfingers 7.12502
rthumb 14.9371 -10.2331
lclavicle 1.59028e-015 -3.18055e-015
lhumerus -0.116478 -5.91798 77.3803
lradius 61.3562
lwrist -7.74581
lhand -45.6662 -13.9235
lfingers 7.12502
lthumb -18.4246 15.224
rfemur -36.5315 -13.7692 12.5976
rtibia 28.7196
rfoot 21.9571 7.31546
rtoes -19.4876
lfemur 4.96726 1.42429 -19.7069
ltibia 34.2368
lfoot -25.5535 2.41942
ltoes -14.8083
210
root -0.491395 18.4574 -2.67161 539.057 94.586 544.706
lowerback 2.53135 -0.360322 -7.1425
upperback 15.8089 1.43174 -3.11742
thorax 16.2524 0.437981 0.708677
lowerneck 5.36245 -5.50388 5.03528
upperneck 3.76167 -6.99548 10.9405
head 0.520308 -3.32917 2.69698
rclavicle 7.95139e-016 -1.59028e-014
rhumerus -27.3979 -22.9256 -81.4408
rradius 38.6465
rwrist 6.83964
rhand -11.1156 19.289
rfingers 7.12502
rthumb 14.9091 -10.1545
lclavicle 7.95139e-016 -1.59028e-014
lhumerus -0.304955 -5.8122 77.2695
lradius 61.0547
lwrist -7.55018
lhand -45.6953 -13.9293
lfingers 7.12502
lthumb -18.4526 15.2155
rfemur -36.2444 -13.7408 12.4149
rtibia 28.1787
rfoot 22.4197 7.46548
rtoes -20.4684
lfemur 5.19473 1.46284 -19.8141
ltibia 33.9898
lfoot -25.6404 2.17098
ltoes -14.6503
211
root -0.39382 18.4473 -2.65212 541.541 94.5247 547.022
lowerback 2.29422 -0.429158 -7.02653
upperback 15.7151 1.32859 -3.11286
thorax 16.2861 0.397391 0.640346
lowerneck 5.47756 -5.3892 5.07003
upperneck 3.63369 -6.8154 10.7453
head 0.444643 -3.25134 2.62941
rclavicle 2.3059e-014 3.49861e-014
rhumerus -27.4698 -22.8551 -81.3624
rradius 38.5829
rwrist 6.84553
rhand -11.1539 19.3606
rfingers 7.12502
rthumb 14.8722 -10.0856
lclavicle 2.3059e-014 3.49861e-014
lhumerus -0.503195 -5.7054 77.184
lradius 60.7575
lwrist -7.30321
lhand -45.7511 -13.9583
lfingers 7.12502
lthumb -18.5063 15.1813
rfemur -35.9208 -13.6481 12.1805
rtibia 27.7503
rfoot 22.8014 7.6694
rtoes -21.5597
lfemur 5.49056 1.4953 -19.9202
ltibia 33.7136
lfoot -25.6896 2.01087
ltoes -14.8804
